HIERARCHY
ROOT SpineBase
{
  OFFSET 0.000000 0.000000 0.000000
  CHANNELS 6 Xposition Yposition Zposition Zrotation Xrotation Yrotation
  JOINT SpineMid
  {
    OFFSET 0.000000 31.626597 0.000000
    CHANNELS 3 Zrotation Xrotation Yrotation
    JOINT SpineShoulder
    {
      OFFSET 0.009606 23.497971 -0.822208
      CHANNELS 3 Zrotation Xrotation Yrotation
      JOINT Neck
      {
        OFFSET 0.033521 7.764746 -0.620525
        CHANNELS 3 Zrotation Xrotation Yrotation
        JOINT Head
        {
          OFFSET 5.505023 12.862875 3.296630
          CHANNELS 3 Zrotation Xrotation Yrotation
          End Site
          {
            OFFSET 0 0 0
          }
        }
      }
      JOINT ShoulderLeft
      {
        OFFSET -10.287956 -2.822634 -11.497604
        CHANNELS 3 Zrotation Xrotation Yrotation
        JOINT ElbowLeft
        {
          OFFSET -7.464534 -23.728911 -7.432309
          CHANNELS 3 Zrotation Xrotation Yrotation
          JOINT WristLeft
          {
            OFFSET 2.432765 -23.593599 -5.486614
            CHANNELS 3 Zrotation Xrotation Yrotation
            JOINT HandLeft
            {
              OFFSET 1.171407 -8.723793 1.648768
              CHANNELS 3 Zrotation Xrotation Yrotation
              JOINT HandTipLeft
              {
                OFFSET 1.110756 -8.844640 0.257802
                CHANNELS 3 Zrotation Xrotation Yrotation
                End Site
                {
                  OFFSET 0 0 0
                }
              }
              JOINT ThumbLeft
              {
                OFFSET 5.149142 2.233598 4.623246
                CHANNELS 3 Zrotation Xrotation Yrotation
                End Site
                {
                  OFFSET 0 0 0
                }
              }
            }
          }
        }
      }
      JOINT ShoulderRight
      {
        OFFSET 11.513225 -4.611223 12.425035
        CHANNELS 3 Zrotation Xrotation Yrotation
        JOINT ElbowRight
        {
          OFFSET 1.990293 -27.792482 1.739575
          CHANNELS 3 Zrotation Xrotation Yrotation
          JOINT WristRight
          {
            OFFSET 0.155210 -24.088536 -1.274943
            CHANNELS 3 Zrotation Xrotation Yrotation
            JOINT HandRight
            {
              OFFSET -0.457604 -7.608299 1.169885
              CHANNELS 3 Zrotation Xrotation Yrotation
              JOINT HandTipRight
              {
                OFFSET -0.040242 -6.160266 -0.353147
                CHANNELS 3 Zrotation Xrotation Yrotation
                End Site
                {
                  OFFSET 0 0 0
                }
              }
              JOINT ThumbRight
              {
                OFFSET 1.664863 0.677691 -3.045465
                CHANNELS 3 Zrotation Xrotation Yrotation
                End Site
                {
                  OFFSET 0 0 0
                }
              }
            }
          }
        }
      }
    }
  }
  JOINT HipLeft
  {
    OFFSET -4.808295 1.655671 -7.626950
    CHANNELS 3 Zrotation Xrotation Yrotation
    JOINT KneeLeft
    {
      OFFSET -12.853694 -35.749078 -4.109124
      CHANNELS 3 Zrotation Xrotation Yrotation
      JOINT AnkleLeft
      {
        OFFSET -9.729224 -37.466792 4.966072
        CHANNELS 3 Zrotation Xrotation Yrotation
        JOINT FootLeft
        {
          OFFSET 0.902283 -7.964681 -6.826488
          CHANNELS 3 Zrotation Xrotation Yrotation
          End Site
          {
            OFFSET 0 0 0
          }
        }
      }
    }
  }
  JOINT HipRight
  {
    OFFSET 5.414408 0.009313 0.661457
    CHANNELS 3 Zrotation Xrotation Yrotation
    JOINT KneeRight
    {
      OFFSET -7.004006 -39.734889 3.971688
      CHANNELS 3 Zrotation Xrotation Yrotation
      JOINT AnkleRight
      {
        OFFSET -7.610109 -35.304455 10.651856
        CHANNELS 3 Zrotation Xrotation Yrotation
        JOINT FootRight
        {
          OFFSET 1.983298 -8.503784 -4.289136
          CHANNELS 3 Zrotation Xrotation Yrotation
          End Site
          {
            OFFSET 0 0 0
          }
        }
      }
    }
  }
}
MOTION
Frames: 13
Frame Time: 0.033333
-30.409475 84.627015 347.936100 -0.000000 0.000000 -39.034596 0.000000 0.000000 39.034596 -0.000000 0.000000 0.000000 -0.000000 0.000000 0.000000 0.000000 0.000000 0.000000 -0.000000 0.000000 0.000000 -0.000000 0.000000 0.000000 -0.000000 0.000000 0.000000 -0.000000 0.000000 0.000000 0.000000 0.000000 0.000000 0.000000 0.000000 0.000000 -0.000000 0.000000 0.000000 -0.000000 0.000000 0.000000 -0.000000 0.000000 0.000000 -0.000000 0.000000 0.000000 0.000000 0.000000 0.000000 0.000000 0.000000 0.000000 0.000000 0.000000 39.034596 -0.000000 0.000000 0.000000 -0.000000 0.000000 0.000000 0.000000 0.000000 0.000000 0.000000 0.000000 39.034596 -0.000000 0.000000 0.000000 -0.000000 0.000000 0.000000 0.000000 0.000000 0.000000
-30.455599 84.624090 347.895121 -0.060888 0.030084 -39.158079 0.066210 0.015121 39.158086 -0.000000 0.000000 0.000000 -0.000000 0.000000 0.000000 0.000000 0.000000 0.000000 -0.000000 0.000000 0.000000 -0.000000 0.000000 0.000000 -0.000000 0.000000 0.000000 -1.238859 0.698349 0.059233 0.000000 0.000000 0.000000 0.000000 0.000000 0.000000 -0.000000 0.000000 0.000000 -0.000000 0.000000 0.000000 -0.000000 0.000000 0.000000 -0.075715 -2.103749 0.016712 0.000000 0.000000 0.000000 0.000000 0.000000 0.000000 0.066210 0.015121 39.158086 -0.000000 0.000000 0.000000 0.718790 -2.666716 -0.919168 0.000000 0.000000 0.000000 0.066210 0.015121 39.158086 -0.000000 0.000000 0.000000 0.622534 1.212627 -0.037511 0.000000 0.000000 0.000000
-30.500052 84.622407 347.856447 -0.117833 0.061863 -39.255320 0.130387 0.026660 39.255353 -0.000000 0.000000 0.000000 -0.000000 0.000000 0.000000 0.000000 0.000000 0.000000 -0.000000 0.000000 0.000000 -0.000000 0.000000 0.000000 -0.000000 0.000000 0.000000 -2.251701 1.298111 0.123246 0.000000 0.000000 0.000000 0.000000 0.000000 0.000000 -0.000000 0.000000 0.000000 -0.000000 0.000000 0.000000 -0.952098 -0.748366 -0.107447 0.871151 -2.822243 0.121862 0.000000 0.000000 0.000000 0.000000 0.000000 0.000000 0.130387 0.026660 39.255353 -0.000000 0.000000 0.000000 1.238568 -4.767622 -1.605687 0.000000 0.000000 0.000000 0.130387 0.026660 39.255353 -0.000000 0.000000 0.000000 1.148355 2.160446 -0.095815 0.000000 0.000000 0.000000
-30.542833 84.621964 347.820080 -0.170832 0.095333 -39.326408 0.192563 0.034518 39.326492 -0.000000 0.000000 0.000000 -0.000000 0.000000 0.000000 0.000000 0.000000 0.000000 -0.000000 0.000000 0.000000 -0.000000 0.000000 0.000000 -0.000000 0.000000 0.000000 -3.040770 1.801111 0.186073 0.000000 0.000000 0.000000 0.000000 0.000000 0.000000 -0.000000 0.000000 0.000000 -0.000000 0.000000 0.000000 -1.360896 -0.987235 -0.161284 1.330945 -3.529922 0.169018 0.000000 0.000000 0.000000 0.000000 0.000000 0.000000 0.192563 0.034518 39.326492 -0.000000 0.000000 0.000000 1.568096 -6.243353 -2.059408 0.000000 0.000000 0.000000 0.192563 0.034518 39.326492 -0.000000 0.000000 0.000000 1.581577 2.852557 -0.169054 0.000000 0.000000 0.000000
-30.583943 84.622762 347.786019 -0.219882 0.130495 -39.371441 0.252758 0.038603 39.371606 -0.000000 0.000000 0.000000 -0.000000 0.000000 0.000000 0.000000 0.000000 0.000000 -0.000000 0.000000 0.000000 -0.000000 0.000000 0.000000 -0.148545 -0.832389 -0.140758 -3.468873 3.031473 0.433943 0.000000 0.000000 0.000000 0.000000 0.000000 0.000000 -0.000000 0.000000 0.000000 -0.000000 0.000000 0.000000 -1.724552 -1.135366 -0.213475 1.798134 -3.882120 0.210477 0.000000 0.000000 0.000000 0.000000 0.000000 0.000000 0.252758 0.038603 39.371606 -0.000000 0.000000 0.000000 1.715037 -7.057561 -2.281242 0.000000 0.000000 0.000000 0.252758 0.038603 39.371606 -0.000000 0.000000 0.000000 1.925292 3.296172 -0.252945 0.000000 0.000000 0.000000
-30.623382 84.624802 347.754264 -0.264982 0.167345 -39.390523 0.310985 0.038828 39.390805 -0.000000 0.000000 0.000000 -0.000000 0.000000 0.000000 0.000000 0.000000 0.000000 -0.000000 0.000000 0.000000 -0.000000 0.000000 0.000000 0.058078 -1.050684 -0.129345 -4.023022 3.562541 0.493152 0.000000 0.000000 0.000000 0.000000 0.000000 0.000000 -0.000000 0.000000 0.000000 -0.000000 0.000000 0.000000 -2.042810 -1.192263 -0.262987 2.270750 -3.923504 0.247250 0.000000 0.000000 0.000000 0.000000 0.000000 0.000000 0.310985 0.038828 39.390805 -0.000000 0.000000 0.000000 1.684073 -7.192512 -2.271858 0.000000 0.000000 0.000000 0.310985 0.038828 39.390805 -0.000000 0.000000 0.000000 2.181615 3.496255 -0.344582 0.000000 0.000000 0.000000
-30.679147 84.627514 347.684413 -0.316654 0.249298 -39.286696 0.402941 0.007555 39.287358 -0.000000 0.000000 0.000000 -0.000000 0.000000 0.000000 0.000000 0.000000 0.000000 -0.000000 0.000000 0.000000 -0.000000 0.000000 0.000000 0.714264 -1.135708 -0.010402 -3.981136 4.275412 0.480313 0.000000 0.000000 0.000000 0.000000 0.000000 0.000000 -0.224487 -0.830515 -0.075131 0.223421 0.830802 0.071884 -2.795929 -1.082077 -0.390183 3.237324 -2.369046 0.340119 0.000000 0.000000 0.000000 0.000000 0.000000 0.000000 0.402941 0.007555 39.287358 -0.000000 0.000000 0.000000 1.344600 -5.442305 -1.775419 0.000000 0.000000 0.000000 0.402941 0.007555 39.287358 -0.000000 0.000000 0.000000 1.805693 3.262749 -0.197537 0.000000 0.000000 0.000000
-30.700211 84.636112 347.676442 -0.334005 0.267812 -39.234635 0.428097 0.003824 39.235401 -0.000000 0.000000 0.000000 -0.000000 0.000000 0.000000 0.000000 0.000000 0.000000 -0.000000 0.000000 0.000000 -0.000000 0.000000 0.000000 1.380021 -1.053981 0.131555 -3.939096 3.777608 0.269621 0.000000 0.000000 0.000000 0.000000 0.000000 0.000000 -0.379008 -0.975464 -0.096778 0.377415 0.976081 0.090337 -2.958155 -0.689865 -0.430212 4.341143 -1.573858 0.340761 0.000000 0.000000 0.000000 0.000000 0.000000 0.000000 0.428097 0.003824 39.235401 -0.000000 0.000000 0.000000 0.622026 -3.856283 -0.976786 0.000000 0.000000 0.000000 0.428097 0.003824 39.235401 -0.000000 0.000000 0.000000 2.407664 3.160914 -0.533559 0.000000 0.000000 0.000000
-30.697036 84.655207 347.701053 -0.329647 0.251120 -39.286797 0.414151 0.014372 39.287468 -0.000000 0.000000 0.000000 -0.000000 0.000000 0.000000 0.000000 0.000000 0.000000 -0.000000 0.000000 0.000000 -0.000000 0.000000 0.000000 1.580759 -1.304846 0.140996 -4.973013 4.278772 0.335858 0.000000 0.000000 0.000000 0.000000 0.000000 0.000000 -0.536676 -0.991142 -0.109191 0.534867 0.992119 0.099918 -2.910889 -0.545761 -0.427760 4.417818 -2.331274 0.356245 0.000000 0.000000 0.000000 0.000000 0.000000 0.000000 0.414151 0.014372 39.287468 -0.000000 0.000000 0.000000 0.017933 -2.445248 -0.297476 0.000000 0.000000 0.000000 0.414151 0.014372 39.287468 -0.000000 0.000000 0.000000 2.380402 2.579325 -0.642317 0.000000 0.000000 0.000000
-30.703309 84.662024 347.716735 -0.346521 0.264200 -39.317951 0.435485 0.015171 39.318692 -0.000000 0.000000 0.000000 -0.000000 0.000000 0.000000 0.000000 0.000000 0.000000 -0.000000 0.000000 0.000000 -0.000000 0.000000 0.000000 1.761768 -3.225095 -0.050205 -6.215345 7.265918 0.941723 0.000000 0.000000 0.000000 0.000000 0.000000 0.000000 -0.656519 -0.984878 -0.117252 0.654599 0.986155 0.105976 -2.567850 -0.960751 -0.357713 4.039282 -1.752622 0.258328 0.000000 0.000000 0.000000 0.000000 0.000000 0.000000 0.435485 0.015171 39.318692 -0.000000 0.000000 0.000000 -0.300925 -1.875012 0.041156 0.000000 0.000000 0.000000 0.435485 0.015171 39.318692 -0.000000 0.000000 0.000000 1.779062 1.506750 -0.563575 0.000000 0.000000 0.000000
-30.727335 84.654067 347.734078 -0.399634 0.277004 -39.318134 0.484688 0.038921 39.318936 -0.000000 0.000000 0.000000 -0.000000 0.000000 0.000000 0.000000 0.000000 0.000000 -0.000000 0.000000 0.000000 -0.000000 0.000000 0.000000 1.424134 -3.799044 -0.192381 -6.728651 8.236610 1.257702 0.000000 0.000000 0.000000 0.000000 0.000000 0.000000 -0.718684 -0.973927 -0.120830 0.716733 0.975364 0.108620 -1.464091 -1.446347 -0.156200 1.886539 -0.584310 0.105122 0.000000 0.000000 0.000000 0.000000 0.000000 0.000000 0.484688 0.038921 39.318936 -0.000000 0.000000 0.000000 -0.653965 -3.056009 0.201526 0.000000 0.000000 0.000000 0.484688 0.038921 39.318936 -0.000000 0.000000 0.000000 0.987788 0.527421 -0.378131 0.000000 0.000000 0.000000
-30.772641 84.629454 347.762328 -0.486766 0.266744 -39.313039 0.545605 0.102019 39.313686 -0.000000 0.000000 0.000000 -0.000000 0.000000 0.000000 0.000000 0.000000 0.000000 -0.920473 -0.430513 0.419717 -0.616110 0.190193 -0.085296 1.401871 -3.688626 -0.885779 -6.764193 9.196285 1.810624 0.000000 0.000000 0.000000 0.000000 0.000000 0.000000 -0.682797 -0.961621 -0.117322 0.680923 0.962949 0.105870 -0.408259 -2.131329 0.057657 0.462458 0.161083 -0.064159 0.000000 0.000000 0.000000 0.000000 0.000000 0.000000 0.545605 0.102019 39.313686 -0.000000 0.000000 0.000000 -0.860603 -2.955574 0.389474 0.000000 0.000000 0.000000 0.545605 0.102019 39.313686 -0.000000 0.000000 0.000000 -0.000000 0.000000 0.000000 0.000000 0.000000 0.000000
-30.848005 84.563656 347.811818 -0.602975 0.228370 -39.272691 0.611348 0.204904 39.272800 -0.540194 0.603538 -0.042948 0.334814 0.250459 -0.263970 0.000000 0.000000 0.000000 -0.568358 -1.825797 0.757323 -1.736394 0.697322 -0.086571 0.787431 -3.442405 -1.590105 -6.119843 9.572180 2.300709 0.000000 0.000000 0.000000 0.000000 0.000000 0.000000 -0.067870 -1.398808 -0.057061 0.607778 0.796229 0.090845 1.079844 -2.910181 0.367321 -1.199106 1.692390 -0.291895 0.000000 0.000000 0.000000 0.000000 0.000000 0.000000 0.611348 0.204904 39.272800 -0.000000 0.000000 0.000000 -0.831579 -1.639648 0.521920 0.000000 0.000000 0.000000 0.611348 0.204904 39.272800 -0.000000 0.000000 0.000000 -0.675342 -0.654386 0.184942 0.000000 0.000000 0.000000
